<svg version="1.2" xmlns="http://www.w3.org/2000/svg" viewBox="0 0 700 800" width="700" height="800"><style>.a{fill:#f9a41b}.b{fill:#f79820}.c{fill:#f27023}.d{fill:#fec30b}.e{fill:#fec411}.f{fill:#f47f1f}.g{fill:#fdbe12}.h{fill:#f68e20}.i{fill:#f68e1e}.j{fill:#f16523}.k{fill:#f37920}.l{fill:#ec1168}.m{fill:#ec3227}.n{fill:#ec0f67}.o{fill:#c91a73}.p{fill:#e21d39}.q{fill:#f26b2e}.r{fill:#5656a5}.s{fill:#5c57a5}.t{fill:#ab2377}.u{fill:#ac2478}.v{fill:#57307b}.w{fill:#8d3b87}.x{fill:#712e70}.y{fill:#7e4198}.z{fill:#6a2f7c}.A{fill:#ef5522}.B{fill:#d31f47}.C{fill:#2ab1e6}.D{fill:#92288e}.E{fill:#005ba8}.F{fill:#2b358e}.G{fill:#ffda00}.H{fill:#f58c21}.I{fill:#f05e24}.J{fill:#f05e22}.K{fill:#ef5325}.L{fill:#ab238c}.M{fill:#ac208c}.N{fill:#962374}.O{fill:#aa013f}.P{fill:#1fb4e8}.Q{fill:#0081c7}.R{fill:#f9a11d}.S{fill:#f37621}.T{fill:#ee4123}.U{fill:#d42027}.V{fill:#ee4023}.W{fill:#c22126}.X{fill:#b61218}.Y{fill:#008acf}.Z{fill:#433391}.a0{fill:#b71d8c}.a1{fill:#b71c8d}.a2{fill:#5a2f90}.a3{fill:#2c3590}.a4{fill:#b14097}.a5{fill:#782c8e}.a6{fill:#f5881f}.a7{fill:#f58721}.a8{fill:#f06124}.a9{fill:#ee3f24}.aa{fill:#fbae17}.ab{fill:#ec2537}.ac{fill:#ed2635}.ad{fill:#fff100}.ae{fill:#2065af}.af{fill:#1e64af}.ag{fill:#343995}</style><path class="a" d="m489.4 94.1l-106.8-94.1 61.4 85.7z"/><path class="a" d="m510.6 115.1l-21.2-21 4 66.1 26.9 13.5z"/><path class="b" d="m345 67.3l-135-25.1 100.1 41.7z"/><path class="b" d="m442.1 138.9l51.3 21.3-15.7-27.6z"/><path class="c" d="m477.7 132.6l15.7 27.6-4-66.1-45.4-8.4z"/><path class="d" d="m376.5 73.1z"/><path class="e" d="m292 108l-239.4 98.9 297.9-52z"/><path class="f" d="m376.5 73.1l-46.3 19.2 111.9 46.6 35.6-6.3z"/><path class="b" d="m373 247.1l32-71.3-126.9 95.5z"/><path class="b" d="m159.1 277.9l-145.9 60.7 125.6-31.9v-0.1z"/><path class="g" d="m223.1 187.6l-209.9 151 145.9-60.7z"/><path class="h" d="m138.8 306.7l-135.6 176.6 102.7-79.2 32.9-97.4z"/><path class="i" d="m138.8 306.6v0.1z"/><path class="j" d="m138.8 306.6l139.3-35.3 126.9-95.5-245.9 102.1z"/><path class="k" d="m405 175.8l-181.9 11.8-64 90.3z"/><path class="l" d="m105.9 404.1l-69.9 206.5 242.1-339.3z"/><path class="m" d="m138.8 306.7l-32.9 97.4 172.2-132.8z"/><path class="n" d="m138.8 306.7l139.3-35.4-139.3 35.3z"/><path class="o" d="m212.6 420.1l254.7-131.6-122.3-11.1z"/><path class="p" d="m351.7 483.3h0.1l44.9-75.7 70.6-119.1-136.8 70.7v160l21.2-35.9z"/><path class="q" d="m467.3 288.5l-94.3-41.4-28 30.3z"/><path class="r" d="m518 459.8l-94.2-18.3 165.8 207.2-71.6-188.9z"/><path class="s" d="m351.8 483.3h-0.1z"/><path class="t" d="m495.3 400.1l-71.5 41.4z"/><path class="u" d="m583.9 445l0.8 27.8 46.7 9 10.8-7.3z"/><path class="v" d="m423.8 441.5l94.2 18.3-22.7-59.7z"/><path class="w" d="m672.6 489.8l9.5-42.6-39.9 27.3z"/><path class="w" d="m616.2 492.2l56.4-2.4-41.2-8z"/><path class="x" d="m631.4 481.8l41.2 8-30.4-15.3z"/><path class="y" d="m583.9 445l-88.6-44.9 88.6 44.9z"/><path class="y" d="m518 459.8l69.5 114-2.8-101-66.7-13z"/><path class="z" d="m495.3 400.1l22.7 59.7 66.7 13-0.8-27.8z"/><path class="A" d="m574.9 244.8l-72.2-15.3 59.1 44.7z"/><path class="B" d="m556.9 407.6l80.2-3.7 11.4-23.7z"/><path class="C" d="m602.3 763l-12.7-114.3-67-33.5z"/><path class="D" d="m299.4 421.8l-8.8 170.8 27.2-26.8z"/><path class="E" d="m325.4 624.9l-38.2 34.7 226.8 140.4z"/><path class="F" d="m290.6 592.6l-3.4 67 38.2-34.7z"/><path class="G" d="m376.5 73.1l67.5 12.6-61.4-85.7-6.1 73.1z"/><path class="H" d="m444 85.7l-67.5-12.6 101.2 59.5z"/><path class="I" d="m210 42.2l69.9 56.1 30.2-14.4z"/><path class="J" d="m310.1 83.9l-100.1-41.7z"/><path class="K" d="m442.1 138.9l-111.9-46.6-38.2 15.7 58.5 46.9z"/><path class="J" d="m442.1 138.9l-111.9-46.6 111.9 46.6z"/><path class="L" d="m345 277.4l28-30.3-94.9 24.2z"/><path class="M" d="m212.6 420.1z"/><path class="L" d="m278.1 271.3l-242.1 339.3 176.6-190.5z"/><path class="N" d="m278.1 271.3l-65.5 148.8 132.4-142.7z"/><path class="O" d="m677.9 402l15.1 9.3-8.6-41.9z"/><path class="P" d="m236.8 511.2l-126.7 180.8 150.6-110.6z"/><path class="Q" d="m427.2 567.6l175.1 195.4-79.7-147.8z"/><path class="Q" d="m351.7 483.3z"/><path class="Q" d="m351.7 483.3z"/><path class="R" d="m619.7 223.6l-121.2-181.4 12.1 72.9z"/><path class="S" d="m520.3 173.7l99.4 49.9-109.1-108.5z"/><path class="T" d="m674.3 326.3l-25.8 53.9 35.9-10.8 5.3-26.1z"/><path class="U" d="m648.5 380.2l-11.4 23.7 40.8-1.9 6.5-32.6z"/><path class="V" d="m684.4 369.4l-6.5 32.6 6.5-32.6z"/><path class="W" d="m640.7 289.2l33.6 37.1 11-22.8z"/><path class="X" d="m697 307.2l-11.7-3.7-11 22.8 15.4 17z"/><path class="Y" d="m260.7 581.4l26.5 78.2 5.2-101.5z"/><path class="Z" d="m299.4 421.8l-62.6 89.4 23.9 70.2 31.7-23.3z"/><path class="a0" d="m423.8 441.5l-27.1-33.9-44.9 75.7z"/><path class="a0" d="m330.5 519.2l96.7 48.4-75.5-84.3z"/><path class="a1" d="m351.8 483.3l44.9-75.7z"/><path class="a1" d="m351.7 483.3l-21.2 35.9z"/><path class="a2" d="m423.8 441.5l-72 41.8h-0.1l159.5 110.9 78.4 54.5z"/><path class="a1" d="m351.7 483.3h0.1z"/><path class="a1" d=""/><path class="a1" d=""/><path class="a3" d="m522.6 615.2l67 33.5-78.4-54.5z"/><path class="a3" d="m511.2 594.2l-159.5-110.9 75.5 84.3 95.4 47.6z"/><path class="a1" d="m351.7 483.3z"/><path class="a1" d="m511.2 594.2l-159.5-110.9z"/><path class="a1" d=""/><path class="a4" d="m325.4 624.9l188.6 175.1-196.2-234.2z"/><path class="a5" d="m317.8 565.8l-27.2 26.8 34.8 32.3z"/><path class="a6" d="m376.5 73.1l-21.1-3.9 21.1 3.9z"/><path class="a7" d="m292 108l-12.1-9.7-227.3 108.6z"/><path class="a8" d="m376.5 73.1l-21.1-3.9-10.4-1.9-34.9 16.6 20.1 8.4z"/><path class="a9" d="m330.2 92.3l-20.1-8.4-30.2 14.4 12.1 9.7z"/><path class="a6" d="m310.1 83.9l20.1 8.4z"/><path class="aa" d="m345 67.3l31.5 5.8 6.1-73.1z"/><path class="aa" d="m355.4 69.2l-10.4-1.9z"/><path class="ab" d="m36 610.6l294.5-251.4-117.9 60.9z"/><path class="ac" d="m212.6 420.1l-176.6 190.5 176.6-190.5z"/><path class="ad" d="m498.5 42.2l-9.1 51.9 21.2 21z"/><path class="ad" d="m510.6 115.1l-21.2-21 21.2 21z"/><path class="ae" d="m656 686.1l-68.5-112.3 2.1 74.9z"/><path class="af" d="m518 459.8l71.6 188.9-71.6-188.9z"/><path class="ag" d="m589.6 648.7l-2.1-74.9-69.5-114z"/></svg>